<svg xmlns="http://www.w3.org/2000/svg" width="600" height="420.092" viewBox="0 0 600 420.092"><linearGradient id="a" gradientUnits="userSpaceOnUse" x1="225.727" x2="225.727" y2="294.634"><stop offset="0" stop-color="#4c0f05"/><stop offset="1" stop-color="#e6011c"/></linearGradient><path fill="url(#a)" d="M299.665 147.876L151.79 294.634V0l74.373 74.373z"/><linearGradient id="b" gradientUnits="userSpaceOnUse" x1="151.789" y1="221.255" x2="446.423" y2="221.255"><stop offset="0" stop-color="#00ade8"/><stop offset="1" stop-color="#151d5f"/></linearGradient><path fill="url(#b)" d="M446.423 294.634H151.789l147.876-146.758z"/><path fill="#fff" d="M373.79 74.373h-.063l.032-.031z"/><linearGradient id="c" gradientUnits="userSpaceOnUse" x1="411.193" y1="149.461" x2="411.193" y2="294.634"><stop offset="0" stop-color="#b9d3e4"/><stop offset="1" stop-color="#5c85a5"/></linearGradient><path fill="url(#c)" d="M446.423 149.46v145.174l-70.459-70.459z"/><linearGradient id="d" gradientUnits="userSpaceOnUse" x1="151.789" y1="37.186" x2="373.759" y2="37.186"><stop offset="0" stop-color="#fff43b"/><stop offset="1" stop-color="#dd950b"/></linearGradient><path fill="url(#d)" d="M373.759 74.342l-.032.03H226.162L151.79 0h147.876z"/><linearGradient id="e" gradientUnits="userSpaceOnUse" x1="423.27" y1="-13.367" x2="359.507" y2="97.074"><stop offset="0" stop-color="#f9b314"/><stop offset="1" stop-color="#e8451f"/></linearGradient><path fill="url(#e)" d="M446.423 0v147.255l-72.634-72.882-.03-.031L299.665 0z"/><linearGradient id="f" gradientUnits="userSpaceOnUse" x1="299.665" y1="149.274" x2="446.423" y2="149.274"><stop offset="0" stop-color="#415659"/><stop offset="1" stop-color="#729093"/></linearGradient><path fill="url(#f)" d="M446.423 147.255v2.206l-70.459 74.714-76.299-76.299 74.062-73.503h.062z"/><path fill="#fff" d="M447.479 148.342l-1.056-1.087M447.479 148.342l-1.056 1.118"/><path d="M28.985 394.926h14.866v10.3c-4.569 3.653-8.555 4.651-13.123 4.651-14.45 0-20.016-9.884-20.016-19.435 0-11.959 7.56-21.428 20.016-21.428 5.067 0 10.88 2.079 14.784 5.816l6.81-6.978c-5.98-5.894-13.786-8.886-21.594-8.886C10.215 358.966 0 374.081 0 390.442c0 15.282 8.886 29.65 30.728 29.65 10.217 0 17.442-3.905 23.171-10.464v-24.5H28.985v9.798zm109.24-34.297l-25.358 56.529-16.846-18.992c11.046-2.242 14.7-10.3 14.7-18.272 0-10.048-7.225-19.183-20.929-19.265-9.218 0-18.436-.085-27.656-.085v58.22H73.1v-19.436h10.547l16.943 19.435h23.433l4.983-10.964h30.397l4.9 10.964h11.96l-26.08-58.134h-11.959zM73.1 389.447v-18.603h16.692c6.893 0 9.966 4.65 9.966 9.302 0 4.65-2.99 9.301-9.966 9.301H73.1zm60.308 8.137l10.796-24.747L155 397.584h-21.593zm86.056-.913l-28.488-36.042h-8.886v58.134h10.963v-39.2l30.563 39.282v-.082h6.81v-58.219h-10.962v36.127zm43.118-36.042h-22.838v58.134h22.838c20.348 0 29.318-14.866 29.069-29.568-.249-14.365-9.136-28.566-29.069-28.566zm0 47.586h-11.96v-37.207h11.96c12.624 0 17.94 9.053 18.19 18.106.248 9.468-4.985 19.1-18.19 19.1zm65.458 1.58c-14.368 0-19.932-10.05-20.016-19.683-.081-9.718 5.98-20.181 20.016-20.181 5.067 0 10.215 1.741 14.036 5.479l7.309-7.06c-5.98-5.895-13.455-8.886-21.345-8.886-21.012 0-30.895 15.448-30.811 30.648.083 15.114 9.218 29.98 30.811 29.98 8.389 0 16.111-2.74 22.091-8.637l-7.474-7.558c-3.821 3.82-9.55 5.898-14.617 5.898zm67.865-24.586h-28.57v-24.498h-10.96v58.134h10.96v-23.503h28.57v23.503h10.88v-58.134h-10.88v24.498zm41.294-24.58l-26.079 58.134h11.877l4.985-10.964h30.396l4.9 10.964h11.959l-26.079-58.134h-11.96zm-4.818 36.955l10.797-24.747 10.798 24.747H432.38zm77.836-11.874l-18.188-25h-12.624v58.135h10.962v-42.27l18.521 25.33h2.16l18.934-25.248v42.188h10.965v-58.134h-12.542l-18.188 24.999zm68.45-25.166c-9.136 0-18.27.085-27.408.085v58.134h10.964v-17.108h16.443c28.488 0 28.403-41.111 0-41.111zm0 31.06h-16.444v-20.596h16.443c13.953 0 14.035 20.596 0 20.596zM158.56 328.392l13.049 16.774v-.037h2.906v-24.856h-4.68v15.424l-12.162-15.388h-3.794v24.82h4.681v-16.737zm44.992 4.468c.071-6.489-4.184-13.048-12.728-13.048-8.581 0-12.765 6.559-12.765 13.085 0 6.522 4.042 12.8 12.765 12.8s12.658-6.417 12.728-12.837zm-20.883.107c-.108-4.184 2.304-8.899 8.155-8.899s8.19 4.678 8.12 8.862c-.072 4.08-2.27 8.477-8.12 8.477s-8.049-4.363-8.155-8.44zm29.282 12.162h4.681v-20.566h7.872v-4.254H204.08v4.254h7.871v20.566zm37.406 0v-.318l-7.516-8.477c4.716-.956 6.275-4.396 6.275-7.8 0-4.29-3.084-8.191-8.935-8.225-3.936 0-7.872-.036-11.807-.036v24.856h4.68v-8.297h4.503l7.233 8.297h5.567zm-17.304-12.517v-7.943h7.128c2.943 0 4.255 1.987 4.255 3.971 0 1.987-1.277 3.972-4.255 3.972h-7.128zm37.725 7.909h-13.935v-5.604h13.439v-4.362h-13.439v-5.707h13.935v-4.539h-18.58v24.82h18.58v-4.608zm16.199-8.938h-13.084v3.971h13.084v-3.97zm25.491.922c-.106-6.134-3.9-12.196-12.41-12.196h-9.75v24.82h9.75c8.688 0 12.518-6.347 12.41-12.624zm-17.515-7.763h5.106c5.39 0 7.658 3.865 7.765 7.73.106 4.041-2.127 8.155-7.765 8.155h-5.106v-15.885zm25.244 15.706h12.977l2.092 4.681h5.106l-11.134-24.82h-5.106l-11.134 24.82h5.07l2.13-4.681zm6.488-14.927l4.61 10.567h-9.22l4.61-10.567zm37.05 19.645h4.679v-24.823h-5.352l-7.767 10.673-7.765-10.673h-5.39v24.823h4.68v-18.049l7.908 10.813h.922l8.086-10.78v18.016zm27.581-4.645H376.38v-5.604h13.44v-4.362h-13.44v-5.707h13.937v-4.539h-18.582v24.82h18.582v-4.608zm32.617-8.016c-.106-6.134-3.899-12.196-12.409-12.196h-9.75v24.82h9.75c8.686 0 12.515-6.347 12.409-12.624zm-12.409 8.122h-5.106v-15.885h5.106c5.388 0 7.658 3.865 7.764 7.73.106 4.041-2.127 8.155-7.764 8.155zm26.516 5.033c6.244 0 10.746-3.759 10.746-11.098v-14.22h-4.645v14.22c0 4.257-2.2 6.845-6.065 6.845s-6.416-2.376-6.416-6.845v-14.22h-4.645v14.22c0 7.482 5.07 11.098 11.025 11.098z"/></svg>